<svg xmlns="http://www.w3.org/2000/svg" width="512" height="512" viewBox="0 0 512 512" data-bbox="27.956 209.381 456.088 93.238" style="overflow: visible;"><defs transform="matrix(0.8029186712760903, 0, 0, 0.8029186712760903, 50.4527906441067, 50.45278688467035)" data-uid="o_fb73ejei2_8"><radialGradient x1="0%" y1="50%" x2="100%" y2="50%" id="o_fb73ejei2_6" gradientUnits="objectBoundingBox" data-uid="o_fb73ejei2_9"><stop offset="0%" stop-color="rgb(255,96,76)" stop-opacity="1" data-uid="o_fb73ejei2_10"></stop><stop offset="74%" stop-color="rgb(194,21,0)" stop-opacity="1" data-uid="o_fb73ejei2_11"></stop></radialGradient><radialGradient x1="0%" y1="50%" x2="100%" y2="50%" id="g_-953927734_2" gradientUnits="objectBoundingBox" data-uid="o_fb73ejei2_52"><stop offset="0%" stop-color="rgb(255, 96, 76)" stop-opacity="1.00" data-uid="o_fb73ejei2_53"></stop><stop offset="74%" stop-color="rgb(194, 21, 0)" stop-opacity="1.00" data-uid="o_fb73ejei2_54"></stop></radialGradient></defs><g transform="matrix(0.15490938847911342, 0, 0, 0.15490938847911342, 58.000000000000014, 214.3545740886613)" fill="url(#o_fb73ejei2_6)" data-uid="o_fb73ejei2_12"><g fill="rgba(194,21,0,1)" data-uid="o_fb73ejei2_13"><path d="m101.993 70.331c-17.459 0-31.663 14.204-31.663 31.663s14.204 31.663 31.663 31.663 31.663-14.204 31.663-31.663-14.204-31.663-31.663-31.663z" fill="rgba(194,21,0,1)" transform="matrix(1, 0, 0, 1, 0, 0)" data-uid="o_fb73ejei2_14"></path><path d="m410.007 378.344c-17.459 0-31.663 14.204-31.663 31.663s14.204 31.663 31.663 31.663 31.663-14.204 31.663-31.663-14.204-31.663-31.663-31.663z" fill="rgba(194,21,0,1)" transform="matrix(1, 0, 0, 1, 0, 0)" data-uid="o_fb73ejei2_15"></path><path d="m101.993 378.344c-17.459 0-31.663 14.204-31.663 31.663s14.204 31.663 31.663 31.663 31.663-14.204 31.663-31.663-14.204-31.663-31.663-31.663z" fill="rgba(194,21,0,1)" transform="matrix(1, 0, 0, 1, 0, 0)" data-uid="o_fb73ejei2_16"></path><path fill="rgba(194,21,0,1)" transform="matrix(1, 0, 0, 1, 0, 0)" data-type="circle" data-cx="410.007" data-cy="101.993" data-r="31.663" d="M410.007 101.993m-31.663 0a31.663 31.663 0 1 0 63.326 0a31.663 31.663 0 1 0 -63.326 0" data-uid="o_fb73ejei2_17"></path><path d="m23.537 178.988c-12.978 0-23.537 10.558-23.537 23.536 0 12.979 10.559 23.537 23.537 23.537s23.537-10.559 23.537-23.537-10.558-23.536-23.537-23.536z" fill="rgba(194,21,0,1)" transform="matrix(1, 0, 0, 1, 0, 0)" data-uid="o_fb73ejei2_18"></path><path d="m488.463 226.062c12.979 0 23.537-10.559 23.537-23.537s-10.559-23.537-23.537-23.537-23.537 10.559-23.537 23.537 10.558 23.537 23.537 23.537z" fill="rgba(194,21,0,1)" transform="matrix(1, 0, 0, 1, 0, 0)" data-uid="o_fb73ejei2_19"></path><path d="m23.537 285.938c-12.978 0-23.537 10.559-23.537 23.538 0 12.978 10.559 23.537 23.537 23.537s23.537-10.559 23.537-23.537c0-12.979-10.558-23.538-23.537-23.538z" fill="rgba(194,21,0,1)" transform="matrix(1, 0, 0, 1, 0, 0)" data-uid="o_fb73ejei2_20"></path><path d="m488.463 285.938c-12.979 0-23.537 10.559-23.537 23.537s10.559 23.537 23.537 23.537 23.537-10.558 23.537-23.536c0-12.979-10.559-23.538-23.537-23.538z" fill="rgba(194,21,0,1)" transform="matrix(1, 0, 0, 1, 0, 0)" data-uid="o_fb73ejei2_21"></path><path fill="rgba(194,21,0,1)" transform="matrix(1, 0, 0, 1, 0, 0)" data-type="circle" data-cx="309.476" data-cy="23.537" data-r="23.537" d="M309.476 23.537m-23.537 0a23.537 23.537 0 1 0 47.074 0a23.537 23.537 0 1 0 -47.074 0" data-uid="o_fb73ejei2_22"></path><path fill="rgba(194,21,0,1)" transform="matrix(1, 0, 0, 1, 0, 0)" data-type="circle" data-cx="309.476" data-cy="488.463" data-r="23.537" d="M309.476 488.463m-23.537 0a23.537 23.537 0 1 0 47.074 0a23.537 23.537 0 1 0 -47.074 0" data-uid="o_fb73ejei2_23"></path><path d="m202.524 464.926c-12.978 0-23.537 10.559-23.537 23.537s10.559 23.537 23.537 23.537c12.979 0 23.537-10.559 23.537-23.537s-10.558-23.537-23.537-23.537z" fill="rgba(194,21,0,1)" transform="matrix(1, 0, 0, 1, 0, 0)" data-uid="o_fb73ejei2_24"></path><path d="m202.524 47.074c12.979 0 23.537-10.559 23.537-23.537.001-12.978-10.558-23.537-23.537-23.537-12.978 0-23.537 10.559-23.537 23.537.001 12.978 10.559 23.537 23.537 23.537z" fill="rgba(194,21,0,1)" transform="matrix(1, 0, 0, 1, 0, 0)" data-uid="o_fb73ejei2_25"></path></g><g fill="rgba(234,74,53,1)" data-uid="o_fb73ejei2_26"><path d="m101.993 170.862c-17.459 0-31.663 14.204-31.663 31.663s14.204 31.663 31.663 31.663 31.663-14.204 31.663-31.663-14.204-31.663-31.663-31.663z" fill="rgba(234,74,53,1)" transform="matrix(1, 0, 0, 1, 0, 0)" data-uid="o_fb73ejei2_27"></path><path d="m410.007 170.862c-17.459 0-31.663 14.204-31.663 31.663s14.204 31.663 31.663 31.663 31.663-14.204 31.663-31.663-14.204-31.663-31.663-31.663z" fill="rgba(234,74,53,1)" transform="matrix(1, 0, 0, 1, 0, 0)" data-uid="o_fb73ejei2_28"></path><path d="m101.993 277.813c-17.459 0-31.663 14.204-31.663 31.663s14.204 31.663 31.663 31.663 31.663-14.204 31.663-31.663-14.204-31.663-31.663-31.663z" fill="rgba(234,74,53,1)" transform="matrix(1, 0, 0, 1, 0, 0)" data-uid="o_fb73ejei2_29"></path><path d="m410.007 277.813c-17.459 0-31.663 14.204-31.663 31.663s14.204 31.663 31.663 31.663 31.663-14.204 31.663-31.663-14.204-31.663-31.663-31.663z" fill="rgba(234,74,53,1)" transform="matrix(1, 0, 0, 1, 0, 0)" data-uid="o_fb73ejei2_30"></path><path d="m309.476 133.656c17.459 0 31.662-14.204 31.662-31.663s-14.203-31.663-31.662-31.663-31.663 14.204-31.663 31.663 14.204 31.663 31.663 31.663z" fill="rgba(234,74,53,1)" transform="matrix(1, 0, 0, 1, 0, 0)" data-uid="o_fb73ejei2_31"></path><path d="m309.476 378.344c-17.459 0-31.663 14.204-31.663 31.663s14.204 31.663 31.663 31.663 31.662-14.204 31.662-31.663-14.203-31.663-31.662-31.663z" fill="rgba(234,74,53,1)" transform="matrix(1, 0, 0, 1, 0, 0)" data-uid="o_fb73ejei2_32"></path><path d="m202.524 133.656c17.459 0 31.663-14.204 31.663-31.663s-14.204-31.663-31.663-31.663-31.663 14.204-31.663 31.663 14.204 31.663 31.663 31.663z" fill="rgba(234,74,53,1)" transform="matrix(1, 0, 0, 1, 0, 0)" data-uid="o_fb73ejei2_33"></path><path d="m202.524 378.344c-17.459 0-31.663 14.204-31.663 31.663s14.204 31.663 31.663 31.663 31.663-14.204 31.663-31.663-14.204-31.663-31.663-31.663z" fill="rgba(234,74,53,1)" transform="matrix(1, 0, 0, 1, 0, 0)" data-uid="o_fb73ejei2_34"></path></g><g fill="rgba(255,96,76,1)" data-uid="o_fb73ejei2_35"><path transform="matrix(0.7896926403045654, -0.18666939437389374, 0.18666939437389374, 0.7896926403045654, 5.233527183532715, 83.3380355834961)" fill="rgba(255,96,76,1)" data-cx="202.525" data-cy="202.525" data-rx="48.358" data-ry="48.358" d="M154.167 202.525 C154.167 175.8176140691716 175.8176140691716 154.167 202.525 154.167 C229.2323859308284 154.167 250.883 175.8176140691716 250.883 202.525 C250.883 229.2323859308284 229.2323859308284 250.883 202.525 250.883 C175.8176140691716 250.883 154.167 229.2323859308284 154.167 202.525 Z" data-uid="o_fb73ejei2_36"></path><path d="m309.476 261.117c-26.665 0-48.358 21.693-48.358 48.358s21.693 48.358 48.358 48.358c26.664 0 48.357-21.693 48.357-48.358 0-26.664-21.693-48.358-48.357-48.358z" fill="rgba(255,96,76,1)" transform="matrix(0.8114304542541504, 0.016877448186278343, -0.016877448186278343, 0.8114304542541504, 63.878543853759766, 54.00707244873047)" data-uid="o_fb73ejei2_37"></path><path transform="matrix(0.5738055109977722, -0.5738055109977722, 0.5738055109977722, 0.5738055109977722, -90.86143493652344, 248.969970703125)" fill="rgba(255,96,76,1)" data-cx="202.525" data-cy="309.475" data-rx="48.358" data-ry="48.358" d="M154.167 309.475 C154.167 282.7676140691716 175.8176140691716 261.117 202.525 261.117 C229.2323859308284 261.117 250.883 282.7676140691716 250.883 309.475 C250.883 336.18238593082845 229.2323859308284 357.833 202.525 357.833 C175.8176140691716 357.833 154.167 336.18238593082845 154.167 309.475 Z" data-uid="o_fb73ejei2_38"></path><path d="m309.476 154.167c-26.665 0-48.358 21.693-48.358 48.358s21.693 48.358 48.358 48.358c26.664 0 48.357-21.693 48.357-48.358s-21.693-48.358-48.357-48.358z" fill="rgba(255,96,76,1)" transform="matrix(0.8116059303283691, 0, 0, 0.8116059303283691, 58.60108184814453, 41.1759147644043)" data-uid="o_fb73ejei2_39"></path></g></g><path text="Server Hub" fill="#c21500" space="preserve" text-anchor="start" offset="0" font-scale="contain" font-size="37" font-family="Kodchasan" transform="matrix(1.4769633665083612, 0, 0, 1.46381106483443, 150.59195345689164, 255.45838867753213)" font-style="normal" font-weight="400" letter-spacing="-2" data-fl-textpath="" data-uid="o_fb73ejei2_40" d="M 13.5 0.37Q 9.95 0.37  6.97-0.83Q 4-2.03  2.33-4.14L 2.33-4.14Q 2.03-4.51  2.03-4.92L 2.03-4.92Q 2.03-5.44  2.59-5.92L 2.59-5.92Q 2.89-6.14  3.22-6.14L 3.22-6.14Q 3.88-6.14  4.4-5.51L 4.4-5.51Q 5.92-3.85  8.23-2.94Q 10.54-2.03  13.5-2.03L 13.5-2.03Q 16.76-2.03  18.54-3.24Q 20.31-4.44  20.31-6.66L 20.31-6.66Q 20.31-8.58  18.59-9.77Q 16.87-10.95  12.76-11.88L 12.76-11.88Q 7.4-13.06  5.05-14.86Q 2.7-16.65  2.7-19.61L 2.7-19.61Q 2.7-22.68  5.31-24.48Q 7.92-26.27  12.36-26.27L 12.36-26.27Q 15.72-26.27  18.44-25.09Q 21.16-23.9  22.31-21.9L 22.31-21.9Q 22.53-21.53  22.53-21.2L 22.53-21.2Q 22.53-20.61  21.9-20.16L 21.9-20.16Q 21.64-20.02  21.31-20.02L 21.31-20.02Q 20.5-20.02  20.05-20.65L 20.05-20.65Q 18.98-22.2  17.02-23.03Q 15.06-23.86  12.36-23.86L 12.36-23.86Q 5.51-23.86  5.51-19.61L 5.51-19.61Q 5.51-18.31  6.22-17.45Q 6.92-16.58  8.49-15.89Q 10.06-15.21  12.88-14.54L 12.88-14.54Q 18.35-13.25  20.76-11.41Q 23.16-9.58  23.16-6.66L 23.16-6.66Q 23.16-3.4  20.55-1.52Q 17.95 0.37  13.5 0.37L 13.5 0.37ZM 34.847 0.37Q 30.037 0.37  27.417-2.11Q 24.787-4.59  24.787-9.14L 24.787-9.14Q 24.787-13.5  27.447-16Q 30.117-18.5  34.737-18.5L 34.737-18.5Q 37.587-18.5  39.807-17.59Q 42.027-16.69  43.267-15.04Q 44.507-13.39  44.507-11.29L 44.507-11.29Q 44.507-9.73  43.637-8.88Q 42.767-8.03  41.257-8.03L 41.257-8.03L 27.567-8.03Q 27.567-5.18  29.487-3.57Q 31.407-1.96  34.847-1.96L 34.847-1.96Q 36.957-1.96  38.477-2.42Q 39.997-2.89  41.327-3.92L 41.327-3.92Q 42.027-4.51  42.477-4.51L 42.477-4.51Q 42.807-4.51  43.107-4.22L 43.107-4.22Q 43.617-3.77  43.617-3.29L 43.617-3.29Q 43.617-2.92  43.177-2.48L 43.177-2.48Q 41.657-1.04  39.627-0.33Q 37.587 0.37  34.847 0.37L 34.847 0.37ZM 27.637-10.21L 40.437-10.21Q 41.107-10.21  41.437-10.49Q 41.767-10.77  41.767-11.51L 41.767-11.51Q 41.767-12.84  40.887-13.91Q 39.997-14.98  38.387-15.58Q 36.777-16.17  34.737-16.17L 34.737-16.17Q 31.447-16.17  29.547-14.56Q 27.637-12.95  27.637-10.21L 27.637-10.21ZM 48.06 0.37Q 47.43 0.37  47.08-0.02Q 46.73-0.41  46.73-1.11L 46.73-1.11L 46.73-17.02Q 46.73-17.72  47.06-18.11Q 47.39-18.5  48.06-18.5L 48.06-18.5Q 48.69-18.5  49.04-18.11Q 49.39-17.72  49.39-17.02L 49.39-17.02L 49.39-14.8Q 51.91-18.13  56.35-18.13L 56.35-18.13L 57.27-18.13Q 57.98-18.13  58.38-17.82Q 58.79-17.5  58.79-16.95L 58.79-16.95Q 58.79-16.39  58.38-16.09Q 57.98-15.8  57.27-15.8L 57.27-15.8L 56.24-15.8Q 53.09-15.8  51.26-14Q 49.43-12.21  49.43-9.14L 49.43-9.14L 49.43-1.11Q 49.43-0.44  49.08-0.04Q 48.73 0.37  48.06 0.37L 48.06 0.37ZM 68.519 0.37Q 66.739 0.37  65.499-0.7Q 64.259-1.78  63.449-4.03L 63.449-4.03L 58.859-16.72Q 58.789-17.02  58.789-17.13L 58.789-17.13Q 58.789-17.54  59.049-17.89Q 59.309-18.24  59.709-18.39L 59.709-18.39Q 59.899-18.46  60.269-18.46L 60.269-18.46Q 60.709-18.46  61.029-18.24Q 61.339-18.02  61.489-17.61L 61.489-17.61L 66.149-4.77Q 66.739-3.18  67.259-2.55Q 67.779-1.92  68.519-1.92L 68.519-1.92Q 69.259-1.92  69.799-2.53Q 70.329-3.15  70.889-4.7L 70.889-4.7L 75.549-17.61Q 75.879-18.46  76.769-18.46L 76.769-18.46Q 77.439-18.46  77.859-18.07Q 78.289-17.69  78.289-17.13L 78.289-17.13Q 78.289-17.02  78.209-16.72L 78.209-16.72L 73.549-3.96Q 72.739-1.7  71.519-0.67Q 70.289 0.37  68.519 0.37L 68.519 0.37ZM 87.862 0.37Q 83.052 0.37  80.432-2.11Q 77.802-4.59  77.802-9.14L 77.802-9.14Q 77.802-13.5  80.462-16Q 83.132-18.5  87.752-18.5L 87.752-18.5Q 90.602-18.5  92.822-17.59Q 95.042-16.69  96.282-15.04Q 97.522-13.39  97.522-11.29L 97.522-11.29Q 97.522-9.73  96.652-8.88Q 95.782-8.03  94.272-8.03L 94.272-8.03L 80.582-8.03Q 80.582-5.18  82.502-3.57Q 84.422-1.96  87.862-1.96L 87.862-1.96Q 89.972-1.96  91.492-2.42Q 93.012-2.89  94.342-3.92L 94.342-3.92Q 95.042-4.51  95.492-4.51L 95.492-4.51Q 95.822-4.51  96.122-4.22L 96.122-4.22Q 96.632-3.77  96.632-3.29L 96.632-3.29Q 96.632-2.92  96.192-2.48L 96.192-2.48Q 94.672-1.04  92.642-0.33Q 90.602 0.37  87.862 0.37L 87.862 0.37ZM 80.652-10.21L 93.452-10.21Q 94.122-10.21  94.452-10.49Q 94.782-10.77  94.782-11.51L 94.782-11.51Q 94.782-12.84  93.902-13.91Q 93.012-14.98  91.402-15.58Q 89.792-16.17  87.752-16.17L 87.752-16.17Q 84.462-16.17  82.562-14.56Q 80.652-12.95  80.652-10.21L 80.652-10.21ZM 101.075 0.37Q 100.445 0.37  100.095-0.02Q 99.745-0.41  99.745-1.11L 99.745-1.11L 99.745-17.02Q 99.745-17.72  100.075-18.11Q 100.405-18.5  101.075-18.5L 101.075-18.5Q 101.705-18.5  102.055-18.11Q 102.405-17.72  102.405-17.02L 102.405-17.02L 102.405-14.8Q 104.925-18.13  109.365-18.13L 109.365-18.13L 110.285-18.13Q 110.995-18.13  111.395-17.82Q 111.805-17.5  111.805-16.95L 111.805-16.95Q 111.805-16.39  111.395-16.09Q 110.995-15.8  110.285-15.8L 110.285-15.8L 109.255-15.8Q 106.105-15.8  104.275-14Q 102.445-12.21  102.445-9.14L 102.445-9.14L 102.445-1.11Q 102.445-0.44  102.095-0.04Q 101.745 0.37  101.075 0.37L 101.075 0.37ZM 123.305 0.37Q 122.675 0.37  122.305-0.02Q 121.935-0.41  121.935-1.11L 121.935-1.11L 121.935-24.79Q 121.935-25.49  122.305-25.88Q 122.675-26.27  123.305-26.27L 123.305-26.27Q 123.975-26.27  124.345-25.88Q 124.715-25.49  124.715-24.79L 124.715-24.79L 124.715-14.47L 140.955-14.47L 140.955-24.79Q 140.955-25.49  141.325-25.88Q 141.695-26.27  142.365-26.27L 142.365-26.27Q 142.995-26.27  143.365-25.88Q 143.735-25.49  143.735-24.79L 143.735-24.79L 143.735-1.11Q 143.735-0.41  143.365-0.02Q 142.995 0.37  142.365 0.37L 142.365 0.37Q 141.735 0.37  141.345-0.02Q 140.955-0.41  140.955-1.11L 140.955-1.11L 140.955-12.14L 124.715-12.14L 124.715-1.11Q 124.715-0.41  124.345-0.02Q 123.975 0.37  123.305 0.37L 123.305 0.37ZM 154.824 0.37Q 151.204 0.37  149.154-1.7Q 147.094-3.77  147.094-7.47L 147.094-7.47L 147.094-17.02Q 147.094-17.72  147.464-18.11Q 147.834-18.5  148.464-18.5L 148.464-18.5Q 149.094-18.5  149.444-18.11Q 149.794-17.72  149.794-17.02L 149.794-17.02L 149.794-7.47Q 149.794-4.85  151.204-3.4Q 152.604-1.96  155.124-1.96L 155.124-1.96Q 157.124-1.96  158.674-2.85Q 160.234-3.74  161.104-5.33Q 161.974-6.92  161.974-8.99L 161.974-8.99L 161.974-17.02Q 161.974-17.72  162.324-18.11Q 162.674-18.5  163.334-18.5L 163.334-18.5Q 163.964-18.5  164.324-18.11Q 164.674-17.72  164.674-17.02L 164.674-17.02L 164.674-1.11Q 164.674-0.41  164.324-0.02Q 163.964 0.37  163.334 0.37L 163.334 0.37Q 162.674 0.37  162.324-0.04Q 161.974-0.44  161.974-1.11L 161.974-1.11L 161.974-3.29Q 160.604-1.52  158.784-0.57Q 156.974 0.37  154.824 0.37L 154.824 0.37ZM 169.141 0.37Q 168.521 0.37  168.161-0.02Q 167.811-0.41  167.811-1.11L 167.811-1.11L 167.811-26.6Q 167.811-27.31  168.161-27.69Q 168.521-28.08  169.141-28.08L 169.141-28.08Q 169.771-28.08  170.141-27.69Q 170.511-27.31  170.511-26.6L 170.511-26.6L 170.551-14.73Q 173.661-18.5  178.511-18.5L 178.511-18.5Q 181.501-18.5  183.721-17.35Q 185.941-16.21  187.151-14.08Q 188.351-11.95  188.351-9.06L 188.351-9.06Q 188.351-4.55  185.761-2.09Q 183.171 0.37  178.471 0.37L 178.471 0.37Q 173.251 0.37  170.511-3.48L 170.511-3.48L 170.511-1.11Q 170.511-0.44  170.161-0.04Q 169.811 0.37  169.141 0.37L 169.141 0.37ZM 178.281-1.96Q 181.911-1.96  183.761-3.76Q 185.611-5.55  185.611-9.06L 185.611-9.06Q 185.611-12.39  183.651-14.28Q 181.691-16.17  178.281-16.17L 178.281-16.17Q 176.061-16.17  174.291-15.26Q 172.511-14.36  171.511-12.73Q 170.511-11.1  170.511-9.06L 170.511-9.06Q 170.511-5.77  172.591-3.87Q 174.661-1.96  178.281-1.96L 178.281-1.96Z" stroke-width="1" stroke="#c21500"></path><path text="DATA &amp; NEXUS" fill="url(#g_-953927734_2)" space="preserve" text-anchor="middle" offset="0.5" font-scale="contain" font-size="26" font-family="Kodchasan" transform="matrix(1, 0, 0, 1, 290.8578382736133, 289.4081807610855)" font-style="normal" font-weight="400" letter-spacing="5" data-uid="o_fb73ejei2_42" data-fl-textpath="" d="M-120.532 0Q-122.112 0 -123.002-0.85Q-123.882-1.69 -123.882-3.17L-123.882-3.17L-123.882-15.08Q-123.882-16.54 -123.012-17.37Q-122.142-18.2 -120.582-18.2L-120.582-18.2L-116.942-18.2Q-114.232-18.2 -112.222-17.07Q-110.202-15.94 -109.112-13.88Q-108.022-11.83 -108.022-9.07L-108.022-9.07Q-108.022-6.32 -109.112-4.28Q-110.202-2.24 -112.222-1.12Q-114.232 0 -116.942 0L-116.942 0L-120.532 0ZM-120.552-1.61L-117.202-1.61Q-113.772-1.61 -111.882-3.56Q-110.002-5.51 -110.002-9.07L-110.002-9.07Q-110.002-12.64 -111.892-14.61Q-113.792-16.59 -117.202-16.59L-117.202-16.59L-120.552-16.59Q-121.182-16.59 -121.552-16.17Q-121.932-15.76 -121.932-15.08L-121.932-15.08L-121.932-3.12Q-121.932-2.44 -121.552-2.03Q-121.182-1.61 -120.552-1.61L-120.552-1.61ZM-98.656 0.26Q-99.096 0.26 -99.356-0.01Q-99.616-0.29 -99.616-0.78L-99.616-0.78L-99.616-10.95Q-99.616-14.48 -97.626-16.47Q-95.636-18.46 -92.106-18.46L-92.106-18.46Q-88.596-18.46 -86.586-16.46Q-84.586-14.46 -84.586-10.95L-84.586-10.95L-84.586-0.78Q-84.586-0.29 -84.846-0.01Q-85.106 0.26 -85.576 0.26L-85.576 0.26Q-86.016 0.26 -86.286-0.01Q-86.566-0.29 -86.566-0.78L-86.566-0.78L-86.566-6.63L-97.666-6.63L-97.666-0.78Q-97.666-0.29 -97.926-0.01Q-98.186 0.26 -98.656 0.26L-98.656 0.26ZM-97.666-8.24L-86.566-8.24L-86.566-11.02Q-86.566-13.81 -87.996-15.3Q-89.426-16.8 -92.106-16.8L-92.106-16.8Q-94.806-16.8 -96.236-15.31Q-97.666-13.83 -97.666-11.02L-97.666-11.02L-97.666-8.24ZM-69.998 0.26Q-70.458 0.26 -70.708-0.01Q-70.958-0.29 -70.958-0.78L-70.958-0.78L-70.958-16.59L-76.908-16.59Q-77.378-16.59 -77.648-16.78Q-77.928-16.98 -77.928-17.37L-77.928-17.37Q-77.928-18.2 -76.908-18.2L-76.908-18.2L-63.028-18.2Q-62.008-18.2 -62.008-17.37L-62.008-17.37Q-62.008-17 -62.268-16.8Q-62.528-16.59 -63.028-16.59L-63.028-16.59L-68.978-16.59L-68.978-0.78Q-68.978-0.29 -69.248-0.01Q-69.528 0.26 -69.998 0.26L-69.998 0.26ZM-54.414 0.26Q-54.854 0.26 -55.114-0.01Q-55.374-0.29 -55.374-0.78L-55.374-0.78L-55.374-10.95Q-55.374-14.48 -53.384-16.47Q-51.394-18.46 -47.864-18.46L-47.864-18.46Q-44.354-18.46 -42.344-16.46Q-40.344-14.46 -40.344-10.95L-40.344-10.95L-40.344-0.78Q-40.344-0.29 -40.604-0.01Q-40.864 0.26 -41.334 0.26L-41.334 0.26Q-41.774 0.26 -42.044-0.01Q-42.324-0.29 -42.324-0.78L-42.324-0.78L-42.324-6.63L-53.424-6.63L-53.424-0.78Q-53.424-0.29 -53.684-0.01Q-53.944 0.26 -54.414 0.26L-54.414 0.26ZM-53.424-8.24L-42.324-8.24L-42.324-11.02Q-42.324-13.81 -43.754-15.3Q-45.184-16.8 -47.864-16.8L-47.864-16.8Q-50.564-16.8 -51.994-15.31Q-53.424-13.83 -53.424-11.02L-53.424-11.02L-53.424-8.24ZM-13.288 0.26Q-15.368 0.26 -16.918-0.4Q-18.468-1.07 -19.308-2.28Q-20.158-3.48 -20.158-5.07L-20.158-5.07Q-20.158-8.81 -15.478-10.66L-15.478-10.66Q-16.568-11.49 -17.178-12.42Q-17.788-13.34 -17.788-14.48L-17.788-14.48Q-17.788-16.33 -16.628-17.39Q-15.478-18.46 -13.398-18.46L-13.398-18.46Q-11.418-18.46 -10.258-17.39Q-9.108-16.33 -9.108-14.46L-9.108-14.46Q-9.108-13.13 -9.948-12.05Q-10.798-10.97 -12.408-10.17L-12.408-10.17L-7.208-5.12Q-6.528-6.19 -6.258-7.14Q-5.988-8.09 -5.828-9.46L-5.828-9.46Q-5.778-9.85 -5.528-10.08Q-5.278-10.3 -4.888-10.3L-4.888-10.3Q-4.428-10.3 -4.148-9.98Q-3.878-9.67 -3.928-9.26L-3.928-9.26Q-4.398-5.85 -5.798-3.8L-5.798-3.8L-3.178-1.27Q-2.868-0.96 -2.868-0.65L-2.868-0.65Q-2.868-0.34 -3.178-0.03L-3.178-0.03Q-3.438 0.23 -3.798 0.23L-3.798 0.23Q-4.058 0.23 -4.318 0.03L-4.318 0.03L-6.918-2.5Q-7.878-1.53 -9.378-0.64Q-10.868 0.26 -13.288 0.26L-13.288 0.26ZM-13.678-11.39Q-10.998-12.56 -10.998-14.48L-10.998-14.48Q-10.998-15.57 -11.668-16.19Q-12.328-16.8 -13.448-16.8L-13.448-16.8Q-14.588-16.8 -15.228-16.17Q-15.868-15.55 -15.868-14.51L-15.868-14.51Q-15.868-13.6 -15.358-12.95Q-14.848-12.3 -13.678-11.39L-13.678-11.39ZM-13.318-1.4Q-11.708-1.4 -10.368-2Q-9.028-2.6 -8.198-3.74L-8.198-3.74L-14.048-9.41Q-16.148-8.74 -17.188-7.71Q-18.228-6.68 -18.228-5.07L-18.228-5.07Q-18.228-4 -17.618-3.17Q-17.008-2.34 -15.888-1.87Q-14.768-1.4 -13.318-1.4L-13.318-1.4ZM 18.268 0.26Q 17.818 0.26  17.558-0.01Q 17.298-0.29  17.298-0.78L 17.298-0.78L 17.298-11.39Q 17.298-13.55  18.228-15.15Q 19.148-16.74  20.868-17.6Q 22.578-18.46  24.898-18.46L 24.898-18.46Q 27.208-18.46  28.908-17.6Q 30.618-16.74  31.538-15.15Q 32.458-13.55  32.458-11.39L 32.458-11.39L 32.458-0.78Q 32.458-0.29  32.218-0.01Q 31.968 0.26  31.498 0.26L 31.498 0.26Q 31.058 0.26  30.788-0.01Q 30.508-0.29  30.508-0.78L 30.508-0.78L 30.508-11.47Q 30.508-13.99  29.028-15.39Q 27.548-16.8  24.898-16.8L 24.898-16.8Q 22.298-16.8  20.778-15.37Q 19.248-13.94  19.248-11.47L 19.248-11.47L 19.248-0.78Q 19.248-0.29  18.988-0.01Q 18.728 0.26  18.268 0.26L 18.268 0.26ZM 44.814 0Q 43.234 0  42.344-0.83Q 41.464-1.66  41.464-3.17L 41.464-3.17L 41.464-15.08Q 41.464-16.54  42.334-17.37Q 43.204-18.2  44.764-18.2L 44.764-18.2L 52.824-18.2Q 53.844-18.2  53.844-17.37L 53.844-17.37Q 53.844-17  53.584-16.8Q 53.324-16.59  52.824-16.59L 52.824-16.59L 44.794-16.59Q 44.164-16.59  43.794-16.17Q 43.414-15.76  43.414-15.08L 43.414-15.08L 43.414-10.11L 50.854-10.11Q 51.864-10.11  51.864-9.28L 51.864-9.28Q 51.864-8.89  51.594-8.68Q 51.314-8.48  50.854-8.48L 50.854-8.48L 43.414-8.48L 43.414-3.12Q 43.414-2.44  43.794-2.03Q 44.164-1.61  44.794-1.61L 44.794-1.61L 53.394-1.61Q 54.414-1.61  54.414-0.81L 54.414-0.81Q 54.414-0.42  54.144-0.21Q 53.864 0  53.394 0L 53.394 0L 44.814 0ZM 77.452-1.2Q 77.692-0.94  77.692-0.57L 77.692-0.57Q 77.692-0.13  77.302 0.1L 77.302 0.1Q 77.042 0.26  76.802 0.26L 76.802 0.26Q 76.362 0.26  75.972-0.26L 75.972-0.26L 69.842-7.93L 63.672-0.26Q 63.282 0.26  62.842 0.26L 62.842 0.26Q 62.452 0.26  62.222 0.01Q 61.982-0.23  61.982-0.57L 61.982-0.57Q 61.982-0.94  62.222-1.2L 62.222-1.2L 68.722-9.31L 62.582-16.98Q 62.372-17.26  62.372-17.6L 62.372-17.6Q 62.372-18.1  62.742-18.3L 62.742-18.3Q 62.972-18.46  63.212-18.46L 63.212-18.46Q 63.602-18.46  64.012-17.94L 64.012-17.94L 69.842-10.69L 75.632-17.94Q 76.022-18.46  76.472-18.46L 76.472-18.46Q 76.672-18.46  76.912-18.3L 76.912-18.3Q 77.302-18.07  77.302-17.6L 77.302-17.6Q 77.302-17.21  77.092-16.98L 77.092-16.98L 70.932-9.31L 77.452-1.2ZM 93.554 0.26Q 91.244 0.26  89.544-0.65Q 87.834-1.56  86.924-3.28Q 86.014-4.99  86.014-7.36L 86.014-7.36L 86.014-17.42Q 86.014-17.91  86.274-18.19Q 86.534-18.46  86.984-18.46L 86.984-18.46Q 87.444-18.46  87.704-18.19Q 87.964-17.91  87.964-17.42L 87.964-17.42L 87.964-7.28Q 87.964-4.47  89.454-2.94Q 90.934-1.4  93.614-1.4L 93.614-1.4Q 96.314-1.4  97.834-2.95Q 99.354-4.5  99.354-7.28L 99.354-7.28L 99.354-17.42Q 99.354-17.91  99.634-18.19Q 99.904-18.46  100.344-18.46L 100.344-18.46Q 100.814-18.46  101.054-18.19Q 101.304-17.91  101.304-17.42L 101.304-17.42L 101.304-7.36Q 101.304-5.07  100.374-3.34Q 99.434-1.61  97.684-0.68Q 95.924 0.26  93.554 0.26L 93.554 0.26ZM 117.746 0.26Q 115.246 0.26  113.156-0.59Q 111.066-1.43  109.896-2.91L 109.896-2.91Q 109.686-3.17  109.686-3.46L 109.686-3.46Q 109.686-3.82  110.076-4.16L 110.076-4.16Q 110.286-4.32  110.516-4.32L 110.516-4.32Q 110.986-4.32  111.346-3.87L 111.346-3.87Q 112.416-2.7  114.046-2.07Q 115.666-1.43  117.746-1.43L 117.746-1.43Q 120.036-1.43  121.286-2.28Q 122.526-3.12  122.526-4.68L 122.526-4.68Q 122.526-6.03  121.326-6.86Q 120.116-7.7  117.226-8.35L 117.226-8.35Q 113.456-9.18  111.806-10.44Q 110.156-11.7  110.156-13.78L 110.156-13.78Q 110.156-15.94  111.986-17.2Q 113.816-18.46  116.936-18.46L 116.936-18.46Q 119.306-18.46  121.216-17.63Q 123.126-16.8  123.936-15.39L 123.936-15.39Q 124.086-15.13  124.086-14.9L 124.086-14.9Q 124.086-14.48  123.646-14.17L 123.646-14.17Q 123.466-14.07  123.236-14.07L 123.236-14.07Q 122.656-14.07  122.346-14.51L 122.346-14.51Q 121.596-15.6  120.216-16.19Q 118.836-16.77  116.936-16.77L 116.936-16.77Q 112.126-16.77  112.126-13.78L 112.126-13.78Q 112.126-12.87  112.626-12.26Q 113.116-11.65  114.226-11.17Q 115.326-10.69  117.306-10.22L 117.306-10.22Q 121.156-9.31  122.846-8.02Q 124.536-6.73  124.536-4.68L 124.536-4.68Q 124.536-2.39  122.696-1.07Q 120.866 0.26  117.746 0.26L 117.746 0.26Z"></path></svg>
