<svg xmlns="http://www.w3.org/2000/svg" width="512" height="512" viewBox="0 0 512 512" style="overflow: visible;" data-bbox="67.73932163711066 214.35457408866125 361.0401575606874 69.5742852641954"><defs transform="matrix(0.8029186129570007, 0, 0, 0.8029186129570007, 50.452789306640625, 50.45278549194336)" data-uid="o_fb77d09i0_9"><radialGradient x1="0%" y1="50%" x2="100%" y2="50%" id="o_fb77d09i0_6" gradientUnits="objectBoundingBox" data-uid="o_fb77d09i0_10"><stop offset="0%" stop-color="rgb(255,96,76)" stop-opacity="1" data-uid="o_fb77d09i0_11"></stop><stop offset="74%" stop-color="rgb(194,21,0)" stop-opacity="1" data-uid="o_fb77d09i0_12"></stop></radialGradient><radialGradient x1="0%" y1="50%" x2="100%" y2="50%" id="o_fb77d09i0_7" gradientUnits="objectBoundingBox" data-uid="o_fb77d09i0_13"><stop offset="0%" stop-color="rgb(255, 96, 76)" stop-opacity="1.00" data-uid="o_fb77d09i0_14"></stop><stop offset="74%" stop-color="rgb(194, 21, 0)" stop-opacity="1.00" data-uid="o_fb77d09i0_15"></stop></radialGradient></defs><g transform="matrix(1.0000000000000002, 0, 0, 1.0000000000000002, -8.526512829121202e-14, 8.526512829121202e-14)" fill="url(#o_fb77d09i0_6)" data-uid="o_fb77d09i0_16"><g fill="rgba(194,21,0,1)" data-uid="o_fb77d09i0_17"><path d="m101.993 70.331c-17.459 0-31.663 14.204-31.663 31.663s14.204 31.663 31.663 31.663 31.663-14.204 31.663-31.663-14.204-31.663-31.663-31.663z" fill="rgba(194,21,0,1)" transform="matrix(1, 0, 0, 1, 0, 0)" data-uid="o_fb77d09i0_18"></path><path d="m410.007 378.344c-17.459 0-31.663 14.204-31.663 31.663s14.204 31.663 31.663 31.663 31.663-14.204 31.663-31.663-14.204-31.663-31.663-31.663z" fill="rgba(194,21,0,1)" transform="matrix(1, 0, 0, 1, 0, 0)" data-uid="o_fb77d09i0_19"></path><path d="m101.993 378.344c-17.459 0-31.663 14.204-31.663 31.663s14.204 31.663 31.663 31.663 31.663-14.204 31.663-31.663-14.204-31.663-31.663-31.663z" fill="rgba(194,21,0,1)" transform="matrix(1, 0, 0, 1, 0, 0)" data-uid="o_fb77d09i0_20"></path><path fill="rgba(194,21,0,1)" transform="matrix(1, 0, 0, 1, 0, 0)" data-type="circle" data-cx="410.007" data-cy="101.993" data-r="31.663" d="M410.007 101.993m-31.663 0a31.663 31.663 0 1 0 63.326 0a31.663 31.663 0 1 0 -63.326 0" data-uid="o_fb77d09i0_21"></path><path d="m23.537 178.988c-12.978 0-23.537 10.558-23.537 23.536 0 12.979 10.559 23.537 23.537 23.537s23.537-10.559 23.537-23.537-10.558-23.536-23.537-23.536z" fill="rgba(194,21,0,1)" transform="matrix(1, 0, 0, 1, 0, 0)" data-uid="o_fb77d09i0_22"></path><path d="m488.463 226.062c12.979 0 23.537-10.559 23.537-23.537s-10.559-23.537-23.537-23.537-23.537 10.559-23.537 23.537 10.558 23.537 23.537 23.537z" fill="rgba(194,21,0,1)" transform="matrix(1, 0, 0, 1, 0, 0)" data-uid="o_fb77d09i0_23"></path><path d="m23.537 285.938c-12.978 0-23.537 10.559-23.537 23.538 0 12.978 10.559 23.537 23.537 23.537s23.537-10.559 23.537-23.537c0-12.979-10.558-23.538-23.537-23.538z" fill="rgba(194,21,0,1)" transform="matrix(1, 0, 0, 1, 0, 0)" data-uid="o_fb77d09i0_24"></path><path d="m488.463 285.938c-12.979 0-23.537 10.559-23.537 23.537s10.559 23.537 23.537 23.537 23.537-10.558 23.537-23.536c0-12.979-10.559-23.538-23.537-23.538z" fill="rgba(194,21,0,1)" transform="matrix(1, 0, 0, 1, 0, 0)" data-uid="o_fb77d09i0_25"></path><path fill="rgba(194,21,0,1)" transform="matrix(1, 0, 0, 1, 0, 0)" data-type="circle" data-cx="309.476" data-cy="23.537" data-r="23.537" d="M309.476 23.537m-23.537 0a23.537 23.537 0 1 0 47.074 0a23.537 23.537 0 1 0 -47.074 0" data-uid="o_fb77d09i0_26"></path><path fill="rgba(194,21,0,1)" transform="matrix(1, 0, 0, 1, 0, 0)" data-type="circle" data-cx="309.476" data-cy="488.463" data-r="23.537" d="M309.476 488.463m-23.537 0a23.537 23.537 0 1 0 47.074 0a23.537 23.537 0 1 0 -47.074 0" data-uid="o_fb77d09i0_27"></path><path d="m202.524 464.926c-12.978 0-23.537 10.559-23.537 23.537s10.559 23.537 23.537 23.537c12.979 0 23.537-10.559 23.537-23.537s-10.558-23.537-23.537-23.537z" fill="rgba(194,21,0,1)" transform="matrix(1, 0, 0, 1, 0, 0)" data-uid="o_fb77d09i0_28"></path><path d="m202.524 47.074c12.979 0 23.537-10.559 23.537-23.537.001-12.978-10.558-23.537-23.537-23.537-12.978 0-23.537 10.559-23.537 23.537.001 12.978 10.559 23.537 23.537 23.537z" fill="rgba(194,21,0,1)" transform="matrix(1, 0, 0, 1, 0, 0)" data-uid="o_fb77d09i0_29"></path></g><g fill="rgba(234,74,53,1)" data-uid="o_fb77d09i0_30"><path d="m101.993 170.862c-17.459 0-31.663 14.204-31.663 31.663s14.204 31.663 31.663 31.663 31.663-14.204 31.663-31.663-14.204-31.663-31.663-31.663z" fill="rgba(234,74,53,1)" transform="matrix(1, 0, 0, 1, 0, 0)" data-uid="o_fb77d09i0_31"></path><path d="m410.007 170.862c-17.459 0-31.663 14.204-31.663 31.663s14.204 31.663 31.663 31.663 31.663-14.204 31.663-31.663-14.204-31.663-31.663-31.663z" fill="rgba(234,74,53,1)" transform="matrix(1, 0, 0, 1, 0, 0)" data-uid="o_fb77d09i0_32"></path><path d="m101.993 277.813c-17.459 0-31.663 14.204-31.663 31.663s14.204 31.663 31.663 31.663 31.663-14.204 31.663-31.663-14.204-31.663-31.663-31.663z" fill="rgba(234,74,53,1)" transform="matrix(1, 0, 0, 1, 0, 0)" data-uid="o_fb77d09i0_33"></path><path d="m410.007 277.813c-17.459 0-31.663 14.204-31.663 31.663s14.204 31.663 31.663 31.663 31.663-14.204 31.663-31.663-14.204-31.663-31.663-31.663z" fill="rgba(234,74,53,1)" transform="matrix(1, 0, 0, 1, 0, 0)" data-uid="o_fb77d09i0_34"></path><path d="m309.476 133.656c17.459 0 31.662-14.204 31.662-31.663s-14.203-31.663-31.662-31.663-31.663 14.204-31.663 31.663 14.204 31.663 31.663 31.663z" fill="rgba(234,74,53,1)" transform="matrix(1, 0, 0, 1, 0, 0)" data-uid="o_fb77d09i0_35"></path><path d="m309.476 378.344c-17.459 0-31.663 14.204-31.663 31.663s14.204 31.663 31.663 31.663 31.662-14.204 31.662-31.663-14.203-31.663-31.662-31.663z" fill="rgba(234,74,53,1)" transform="matrix(1, 0, 0, 1, 0, 0)" data-uid="o_fb77d09i0_36"></path><path d="m202.524 133.656c17.459 0 31.663-14.204 31.663-31.663s-14.204-31.663-31.663-31.663-31.663 14.204-31.663 31.663 14.204 31.663 31.663 31.663z" fill="rgba(234,74,53,1)" transform="matrix(1, 0, 0, 1, 0, 0)" data-uid="o_fb77d09i0_37"></path><path d="m202.524 378.344c-17.459 0-31.663 14.204-31.663 31.663s14.204 31.663 31.663 31.663 31.663-14.204 31.663-31.663-14.204-31.663-31.663-31.663z" fill="rgba(234,74,53,1)" transform="matrix(1, 0, 0, 1, 0, 0)" data-uid="o_fb77d09i0_38"></path></g><g fill="rgba(255,96,76,1)" data-uid="o_fb77d09i0_39"><path transform="matrix(0.7896926403045654, -0.18666939437389374, 0.18666939437389374, 0.7896926403045654, 5.233527183532715, 83.3380355834961)" fill="rgba(255,96,76,1)" data-cx="202.525" data-cy="202.525" data-rx="48.358" data-ry="48.358" d="M154.167 202.525 C154.167 175.8176140691716 175.8176140691716 154.167 202.525 154.167 C229.2323859308284 154.167 250.883 175.8176140691716 250.883 202.525 C250.883 229.2323859308284 229.2323859308284 250.883 202.525 250.883 C175.8176140691716 250.883 154.167 229.2323859308284 154.167 202.525 Z" data-uid="o_fb77d09i0_40"></path><path d="m309.476 261.117c-26.665 0-48.358 21.693-48.358 48.358s21.693 48.358 48.358 48.358c26.664 0 48.357-21.693 48.357-48.358 0-26.664-21.693-48.358-48.357-48.358z" fill="rgba(255,96,76,1)" transform="matrix(0.8114304542541504, 0.016877448186278343, -0.016877448186278343, 0.8114304542541504, 63.878543853759766, 54.00707244873047)" data-uid="o_fb77d09i0_41"></path><path transform="matrix(0.5738055109977722, -0.5738055109977722, 0.5738055109977722, 0.5738055109977722, -90.86143493652344, 248.969970703125)" fill="rgba(255,96,76,1)" data-cx="202.525" data-cy="309.475" data-rx="48.358" data-ry="48.358" d="M154.167 309.475 C154.167 282.7676140691716 175.8176140691716 261.117 202.525 261.117 C229.2323859308284 261.117 250.883 282.7676140691716 250.883 309.475 C250.883 336.18238593082845 229.2323859308284 357.833 202.525 357.833 C175.8176140691716 357.833 154.167 336.18238593082845 154.167 309.475 Z" data-uid="o_fb77d09i0_42"></path><path d="m309.476 154.167c-26.665 0-48.358 21.693-48.358 48.358s21.693 48.358 48.358 48.358c26.664 0 48.357-21.693 48.357-48.358s-21.693-48.358-48.357-48.358z" fill="rgba(255,96,76,1)" transform="matrix(0.8116059303283691, 0, 0, 0.8116059303283691, 58.60108184814453, 41.1759147644043)" data-uid="o_fb77d09i0_43"></path></g></g></svg>
